<svg xmlns="http://www.w3.org/2000/svg" width="103" height="32" fill="#333">
  <path d="M42.9 10.5H40V13.6H42.9V20.4C42.9 23.7 45.1 25.6 48.4 25.6H50.8V22.3H48.8C47.4 22.3 46.6 21.5 46.6 20.0V13.6H50.8V10.5H46.6V6.0H42.9V10.5Z"/>
  <path d="M52.5 8.1H56.6V4H52.5V8.1ZM56.4 25.6V10.5H52.7V25.6H56.4Z"/>
  <path d="M62.3 25.6V17.4C62.3 15.2 63.8 13.5 65.9 13.5C67.7 13.5 69.0 15.0 69.0 17.1V25.6H72.7V16.3C72.7 12.7 70.5 10.3 67.1 10.3C64.9 10.3 63.2 11.2 62.3 12.9V10.5H58.7V25.6H62.3Z"/>
  <path d="M85.3 20.6C85.0 22.0 83.7 22.8 81.8 22.8C79.5 22.8 77.9 21.3 77.7 18.8H88.8C88.9 18.5 88.9 18.1 88.9 17.6C88.9 14.0 86.6 10.3 81.5 10.3C76.6 10.3 74.1 14.0 74.1 18.0C74.1 22.0 76.9 25.9 81.8 25.9C85.6 25.9 88.4 23.8 88.9 20.6H85.3ZM81.5 13.0C83.7 13.0 85.0 14.5 85.2 16.4H77.8C78.2 14.1 79.5 13.0 81.5 13.0Z"/>
  <path d="M96.3 25.9C99.8 25.9 102.1 24.0 102.1 21.2C102.1 14.3 93.7 17.9 93.7 14.7C93.7 13.6 94.6 13.0 95.9 13.0C97.1 13.0 98.4 13.8 98.6 15.2H102.0C101.8 12.2 99.4 10.3 95.8 10.3C92.7 10.3 90.4 12.1 90.4 14.8C90.4 21.2 98.7 18.0 98.7 21.3C98.7 22.2 97.7 22.9 96.3 22.9C94.6 22.9 93.5 22.0 93.4 20.6H90.0C90.2 23.8 92.6 25.9 96.3 25.9Z"/>
  <path fill-rule="evenodd" clip-rule="evenodd" d="M11.8 0C8.0 0 4.6 2.4 3.5 6.0L0.4 16L3.5 25.9C4.6 29.5 8.0 32 11.8 32H20.1C23.9 32 27.3 29.5 28.4 25.9L31.5 16L28.4 6.0C27.3 2.4 23.9 0 20.1 0H11.8ZM20.1 2.4C22.8 2.4 25.2 4.2 26.0 6.8L26.8 9.2C25.3 7.9 23.3 7.2 21.3 7.2L10.6 7.2C8.6 7.2 6.6 7.9 5.1 9.2L5.9 6.8C6.7 4.2 9.1 2.4 11.8 2.4H20.1ZM5.7 12.1L3.7 14.7L28.1 14.7L26.2 12.1C25.0 10.6 23.2 9.7 21.3 9.7H10.5C8.6 9.7 6.8 10.6 5.7 12.1ZM28.1 17.2L26.2 19.7C25.0 21.3 23.2 22.2 21.3 22.2L10.6 22.2C8.7 22.2 6.9 21.3 5.7 19.7L3.7 17.2L28.1 17.2ZM5.9 25.1C6.7 27.7 9.1 29.5 11.8 29.5H20.1C22.8 29.5 25.2 27.7 26.0 25.1L26.8 22.7C25.3 24.0 23.3 24.7 21.3 24.7L10.6 24.7C8.6 24.7 6.6 24.0 5.1 22.7L5.9 25.1Z"/>
</svg>
